<svg width="184" height="23" viewBox="0 0 184 23" fill="none" xmlns="http://www.w3.org/2000/svg">
    <path d="M18 14.3008V6.69922C17.9997 6.36596 17.9122 6.03865 17.7465 5.75013C17.5807 5.46161 17.3424 5.22201 17.0556 5.05538L10.4444 1.2546C10.1573 1.08781 9.83157 1 9.5 1C9.16843 1 8.8427 1.08781 8.55556 1.2546L1.94444 5.05538C1.65758 5.22201 1.41931 5.46161 1.25355 5.75013C1.08778 6.03865 1.00034 6.36596 1 6.69922V14.3008C1.00034 14.634 1.08778 14.9613 1.25355 15.2499C1.41931 15.5384 1.65758 15.778 1.94444 15.9446L8.55556 19.7454C8.8427 19.9122 9.16843 20 9.5 20C9.83157 20 10.1573 19.9122 10.4444 19.7454L17.0556 15.9446C17.3424 15.778 17.5807 15.5384 17.7465 15.2499C17.9122 14.9613 17.9997 14.634 18 14.3008Z" stroke="#1093EB" stroke-linecap="round" stroke-linejoin="round"/>
    <path d="M24.2714 18H21.8954V1.032H24.2714V7.68C25.1354 6.336 26.3594 5.664 27.9434 5.664C29.4794 5.664 30.7354 6.24 31.7114 7.392C32.6874 8.544 33.1754 10.072 33.1754 11.976C33.1754 13.688 32.7114 15.152 31.7834 16.368C30.8554 17.568 29.5834 18.168 27.9674 18.168C26.3514 18.168 25.1194 17.496 24.2714 16.152V18ZM24.2714 11.832C24.2714 13.272 24.5914 14.344 25.2314 15.048C25.8714 15.752 26.6554 16.104 27.5834 16.104C28.4794 16.104 29.2314 15.728 29.8394 14.976C30.4474 14.208 30.7514 13.224 30.7514 12.024C30.7514 10.648 30.4474 9.592 29.8394 8.856C29.2314 8.104 28.4554 7.728 27.5114 7.728C26.6794 7.728 25.9274 8.064 25.2554 8.736C24.5994 9.408 24.2714 10.44 24.2714 11.832ZM38.2882 18H35.9122V1.032H38.2882V18ZM51.083 7.44C52.091 8.608 52.595 10.104 52.595 11.928C52.595 13.752 52.075 15.256 51.035 16.44C50.011 17.624 48.595 18.216 46.787 18.216C44.995 18.216 43.587 17.632 42.563 16.464C41.539 15.296 41.027 13.816 41.027 12.024C41.027 10.2 41.555 8.688 42.611 7.488C43.667 6.272 45.059 5.664 46.787 5.664C48.643 5.664 50.075 6.256 51.083 7.44ZM43.475 11.952C43.475 13.152 43.771 14.168 44.363 15C44.955 15.816 45.763 16.224 46.787 16.224C47.875 16.224 48.699 15.824 49.259 15.024C49.835 14.224 50.123 13.208 50.123 11.976C50.123 10.712 49.851 9.68 49.307 8.88C48.763 8.064 47.915 7.656 46.763 7.656C45.723 7.656 44.915 8.072 44.339 8.904C43.763 9.72 43.475 10.736 43.475 11.952ZM63.8378 17.52C63.0538 18 62.0538 18.24 60.8378 18.24C58.9338 18.24 57.4138 17.64 56.2778 16.44C55.1418 15.24 54.5738 13.744 54.5738 11.952C54.5738 10.208 55.1418 8.72 56.2778 7.488C57.4298 6.24 58.9818 5.616 60.9338 5.616C61.9898 5.616 62.9578 5.84 63.8378 6.288V8.448C63.0538 7.952 62.1658 7.704 61.1738 7.704C59.9098 7.704 58.8938 8.104 58.1258 8.904C57.3738 9.704 56.9978 10.728 56.9978 11.976C57.0298 13.208 57.4058 14.224 58.1258 15.024C58.8458 15.808 59.8538 16.2 61.1498 16.2C62.1098 16.2 63.0058 15.936 63.8378 15.408V17.52ZM68.8947 18H66.5427V1.2H68.8947V18ZM71.7027 11.64L76.4787 18H73.6707L68.9907 11.64L73.5747 5.832H76.3347L71.7027 11.64ZM86.1507 14.64C86.1507 15.728 85.7667 16.584 84.9987 17.208C84.2307 17.816 83.1907 18.12 81.8787 18.12C80.4387 18.12 79.2387 17.88 78.2787 17.4V15.168C79.3987 15.856 80.5587 16.2 81.7587 16.2C82.3827 16.2 82.8627 16.072 83.1987 15.816C83.5507 15.56 83.7267 15.224 83.7267 14.808C83.7267 14.456 83.5907 14.144 83.3187 13.872C83.0467 13.584 82.7667 13.376 82.4787 13.248C82.2067 13.104 81.7347 12.888 81.0627 12.6C79.1587 11.816 78.2067 10.664 78.2067 9.144C78.2067 8.072 78.6067 7.232 79.4067 6.624C80.2067 6.016 81.2067 5.712 82.4067 5.712C83.7187 5.712 84.7427 5.888 85.4787 6.24V8.376C84.6947 7.912 83.6867 7.68 82.4547 7.68C81.8947 7.68 81.4467 7.808 81.1107 8.064C80.7907 8.32 80.6307 8.656 80.6307 9.072C80.6307 9.184 80.6387 9.296 80.6547 9.408C80.6867 9.504 80.7347 9.608 80.7987 9.72C80.8627 9.816 80.9187 9.904 80.9667 9.984C81.0307 10.048 81.1267 10.12 81.2547 10.2C81.3827 10.28 81.4787 10.352 81.5427 10.416C81.6227 10.464 81.7427 10.528 81.9027 10.608C82.0787 10.688 82.2067 10.752 82.2867 10.8C82.3667 10.832 82.5027 10.896 82.6947 10.992C82.9027 11.072 83.0467 11.128 83.1267 11.16C84.0707 11.576 84.8067 12.048 85.3347 12.576C85.8787 13.088 86.1507 13.776 86.1507 14.64ZM89.9414 15.768C90.2134 16.04 90.3494 16.376 90.3494 16.776C90.3494 17.176 90.2134 17.512 89.9414 17.784C89.6694 18.056 89.3334 18.192 88.9334 18.192C88.5334 18.192 88.1974 18.056 87.9254 17.784C87.6534 17.512 87.5174 17.176 87.5174 16.776C87.5174 16.376 87.6534 16.04 87.9254 15.768C88.1974 15.496 88.5334 15.36 88.9334 15.36C89.3334 15.36 89.6694 15.496 89.9414 15.768ZM93.9258 12.048C93.9258 13.36 94.2458 14.424 94.8858 15.24C95.5258 16.056 96.3338 16.464 97.3098 16.464C98.3018 16.464 99.1418 16.096 99.8298 15.36C100.534 14.624 100.886 13.448 100.886 11.832C100.886 10.296 100.526 9.168 99.8058 8.448C99.0858 7.728 98.2938 7.368 97.4298 7.368C96.4218 7.368 95.5818 7.776 94.9098 8.592C94.2538 9.392 93.9258 10.544 93.9258 12.048ZM102.782 18H100.886V16.2C100.022 17.528 98.7738 18.192 97.1418 18.192C95.5258 18.192 94.2538 17.592 93.3258 16.392C92.4138 15.192 91.9578 13.736 91.9578 12.024C91.9578 10.12 92.4458 8.584 93.4218 7.416C94.3978 6.232 95.6538 5.64 97.1898 5.64C98.7738 5.64 100.006 6.32 100.886 7.68V1.032H102.782V18ZM108.287 18H106.391V5.832H108.287V18ZM108.215 1.128C108.455 1.368 108.575 1.664 108.575 2.016C108.575 2.368 108.455 2.664 108.215 2.904C107.975 3.128 107.679 3.24 107.327 3.24C106.975 3.24 106.679 3.128 106.439 2.904C106.215 2.664 106.103 2.368 106.103 2.016C106.103 1.664 106.215 1.368 106.439 1.128C106.679 0.887999 106.975 0.767999 107.327 0.767999C107.679 0.767999 107.975 0.887999 108.215 1.128ZM113.769 18H111.873L111.897 5.832H113.769V7.968C114.409 6.464 115.513 5.712 117.081 5.712C117.369 5.712 117.593 5.728 117.753 5.76V7.632C117.417 7.52 117.073 7.464 116.721 7.464C115.873 7.464 115.169 7.856 114.609 8.64C114.049 9.424 113.769 10.328 113.769 11.352V18ZM128.605 17.376C127.661 17.872 126.509 18.12 125.149 18.12C123.309 18.12 121.821 17.56 120.685 16.44C119.565 15.304 119.005 13.808 119.005 11.952C119.005 10.016 119.509 8.488 120.517 7.368C121.525 6.248 122.821 5.688 124.405 5.688C125.925 5.688 127.133 6.176 128.029 7.152C128.925 8.128 129.373 9.512 129.373 11.304C129.373 11.816 129.333 12.288 129.253 12.72H120.949C121.093 13.92 121.549 14.84 122.317 15.48C123.085 16.12 124.093 16.44 125.341 16.44C126.701 16.44 127.789 16.16 128.605 15.6V17.376ZM124.405 7.344C123.493 7.344 122.717 7.672 122.077 8.328C121.437 8.984 121.061 9.92 120.949 11.136H127.477V10.656C127.477 9.648 127.205 8.848 126.661 8.256C126.117 7.648 125.365 7.344 124.405 7.344ZM140.64 17.568C139.872 18.032 138.928 18.264 137.808 18.264C135.888 18.264 134.36 17.656 133.224 16.44C132.104 15.208 131.544 13.712 131.544 11.952C131.544 10.224 132.104 8.736 133.224 7.488C134.36 6.24 135.904 5.616 137.856 5.616C138.896 5.616 139.824 5.84 140.64 6.288V8.088C139.904 7.592 139.04 7.344 138.048 7.344C136.672 7.344 135.568 7.792 134.736 8.688C133.92 9.568 133.512 10.664 133.512 11.976C133.528 13.288 133.928 14.384 134.712 15.264C135.496 16.128 136.608 16.56 138.048 16.56C138.976 16.56 139.84 16.296 140.64 15.768V17.568ZM149.657 17.688C149.129 17.976 148.537 18.12 147.881 18.12C145.481 18.12 144.281 16.896 144.281 14.448V7.368H142.337V5.832H144.281V2.808H146.177V5.832H149.537V7.368H146.177V14.496C146.177 15.792 146.785 16.44 148.001 16.44C148.625 16.44 149.177 16.256 149.657 15.888V17.688ZM163.124 11.952C163.124 13.76 162.612 15.256 161.588 16.44C160.564 17.624 159.156 18.216 157.364 18.216C155.62 18.216 154.236 17.632 153.212 16.464C152.204 15.28 151.7 13.792 151.7 12C151.7 10.192 152.22 8.688 153.26 7.488C154.316 6.272 155.684 5.664 157.364 5.664C159.204 5.664 160.62 6.256 161.612 7.44C162.62 8.624 163.124 10.128 163.124 11.952ZM153.668 11.976C153.668 13.24 154.004 14.32 154.676 15.216C155.348 16.096 156.244 16.536 157.364 16.536C158.58 16.536 159.516 16.104 160.172 15.24C160.828 14.36 161.156 13.272 161.156 11.976C161.156 10.632 160.844 9.528 160.22 8.664C159.596 7.784 158.644 7.344 157.364 7.344C156.212 7.344 155.308 7.792 154.652 8.688C153.996 9.584 153.668 10.68 153.668 11.976ZM167.769 18H165.873L165.897 5.832H167.769V7.968C168.409 6.464 169.513 5.712 171.081 5.712C171.369 5.712 171.593 5.728 171.753 5.76V7.632C171.417 7.52 171.073 7.464 170.721 7.464C169.873 7.464 169.169 7.856 168.609 8.64C168.049 9.424 167.769 10.328 167.769 11.352V18ZM179.005 17.688C178.381 19.336 177.637 20.496 176.773 21.168C175.925 21.84 174.949 22.176 173.845 22.176C173.429 22.176 173.093 22.136 172.837 22.056V20.352C173.077 20.416 173.349 20.448 173.653 20.448C175.269 20.448 176.413 19.528 177.085 17.688L172.165 5.832H174.301L175.885 9.84L178.021 15.36C178.149 14.944 178.789 13.104 179.941 9.84L181.357 5.832H183.397L179.005 17.688Z" fill="#1093EB"/>
</svg>
