<svg width="187" height="24" viewBox="0 0 187 24" fill="none" xmlns="http://www.w3.org/2000/svg">
    <path d="M19 15.3008V7.69922C18.9997 7.36596 18.9122 7.03865 18.7465 6.75013C18.5807 6.46161 18.3424 6.22201 18.0556 6.05538L11.4444 2.2546C11.1573 2.08781 10.8316 2 10.5 2C10.1684 2 9.8427 2.08781 9.55556 2.2546L2.94444 6.05538C2.65758 6.22201 2.41931 6.46161 2.25355 6.75013C2.08778 7.03865 2.00034 7.36596 2 7.69922V15.3008C2.00034 15.634 2.08778 15.9613 2.25355 16.2499C2.41931 16.5384 2.65758 16.778 2.94444 16.9446L9.55556 20.7454C9.8427 20.9122 10.1684 21 10.5 21C10.8316 21 11.1573 20.9122 11.4444 20.7454L18.0556 16.9446C18.3424 16.778 18.5807 16.5384 18.7465 16.2499C18.9122 15.9613 18.9997 15.634 19 15.3008Z" stroke="white" stroke-width="3" stroke-linecap="round" stroke-linejoin="round"/>
    <path d="M27.2714 19H24.8954V2.032H27.2714V8.68C28.1354 7.336 29.3594 6.664 30.9434 6.664C32.4794 6.664 33.7354 7.24 34.7114 8.392C35.6874 9.544 36.1754 11.072 36.1754 12.976C36.1754 14.688 35.7114 16.152 34.7834 17.368C33.8554 18.568 32.5834 19.168 30.9674 19.168C29.3514 19.168 28.1194 18.496 27.2714 17.152V19ZM27.2714 12.832C27.2714 14.272 27.5914 15.344 28.2314 16.048C28.8714 16.752 29.6554 17.104 30.5834 17.104C31.4794 17.104 32.2314 16.728 32.8394 15.976C33.4474 15.208 33.7514 14.224 33.7514 13.024C33.7514 11.648 33.4474 10.592 32.8394 9.856C32.2314 9.104 31.4554 8.728 30.5114 8.728C29.6794 8.728 28.9274 9.064 28.2554 9.736C27.5994 10.408 27.2714 11.44 27.2714 12.832ZM41.2882 19H38.9122V2.032H41.2882V19ZM54.083 8.44C55.091 9.608 55.595 11.104 55.595 12.928C55.595 14.752 55.075 16.256 54.035 17.44C53.011 18.624 51.595 19.216 49.787 19.216C47.995 19.216 46.587 18.632 45.563 17.464C44.539 16.296 44.027 14.816 44.027 13.024C44.027 11.2 44.555 9.688 45.611 8.488C46.667 7.272 48.059 6.664 49.787 6.664C51.643 6.664 53.075 7.256 54.083 8.44ZM46.475 12.952C46.475 14.152 46.771 15.168 47.363 16C47.955 16.816 48.763 17.224 49.787 17.224C50.875 17.224 51.699 16.824 52.259 16.024C52.835 15.224 53.123 14.208 53.123 12.976C53.123 11.712 52.851 10.68 52.307 9.88C51.763 9.064 50.915 8.656 49.763 8.656C48.723 8.656 47.915 9.072 47.339 9.904C46.763 10.72 46.475 11.736 46.475 12.952ZM66.8378 18.52C66.0538 19 65.0538 19.24 63.8378 19.24C61.9338 19.24 60.4138 18.64 59.2778 17.44C58.1418 16.24 57.5738 14.744 57.5738 12.952C57.5738 11.208 58.1418 9.72 59.2778 8.488C60.4298 7.24 61.9818 6.616 63.9338 6.616C64.9898 6.616 65.9578 6.84 66.8378 7.288V9.448C66.0538 8.952 65.1658 8.704 64.1738 8.704C62.9098 8.704 61.8938 9.104 61.1258 9.904C60.3738 10.704 59.9978 11.728 59.9978 12.976C60.0298 14.208 60.4058 15.224 61.1258 16.024C61.8458 16.808 62.8538 17.2 64.1498 17.2C65.1098 17.2 66.0058 16.936 66.8378 16.408V18.52ZM71.8947 19H69.5427V2.2H71.8947V19ZM74.7027 12.64L79.4787 19H76.6707L71.9907 12.64L76.5747 6.832H79.3347L74.7027 12.64ZM89.1507 15.64C89.1507 16.728 88.7667 17.584 87.9987 18.208C87.2307 18.816 86.1907 19.12 84.8787 19.12C83.4387 19.12 82.2387 18.88 81.2787 18.4V16.168C82.3987 16.856 83.5587 17.2 84.7587 17.2C85.3827 17.2 85.8627 17.072 86.1987 16.816C86.5507 16.56 86.7267 16.224 86.7267 15.808C86.7267 15.456 86.5907 15.144 86.3187 14.872C86.0467 14.584 85.7667 14.376 85.4787 14.248C85.2067 14.104 84.7347 13.888 84.0627 13.6C82.1587 12.816 81.2067 11.664 81.2067 10.144C81.2067 9.072 81.6067 8.232 82.4067 7.624C83.2067 7.016 84.2067 6.712 85.4067 6.712C86.7187 6.712 87.7427 6.888 88.4787 7.24V9.376C87.6947 8.912 86.6867 8.68 85.4547 8.68C84.8947 8.68 84.4467 8.808 84.1107 9.064C83.7907 9.32 83.6307 9.656 83.6307 10.072C83.6307 10.184 83.6387 10.296 83.6547 10.408C83.6867 10.504 83.7347 10.608 83.7987 10.72C83.8627 10.816 83.9187 10.904 83.9667 10.984C84.0307 11.048 84.1267 11.12 84.2547 11.2C84.3827 11.28 84.4787 11.352 84.5427 11.416C84.6227 11.464 84.7427 11.528 84.9027 11.608C85.0787 11.688 85.2067 11.752 85.2867 11.8C85.3667 11.832 85.5027 11.896 85.6947 11.992C85.9027 12.072 86.0467 12.128 86.1267 12.16C87.0707 12.576 87.8067 13.048 88.3347 13.576C88.8787 14.088 89.1507 14.776 89.1507 15.64ZM92.9414 16.768C93.2134 17.04 93.3494 17.376 93.3494 17.776C93.3494 18.176 93.2134 18.512 92.9414 18.784C92.6694 19.056 92.3334 19.192 91.9334 19.192C91.5334 19.192 91.1974 19.056 90.9254 18.784C90.6534 18.512 90.5174 18.176 90.5174 17.776C90.5174 17.376 90.6534 17.04 90.9254 16.768C91.1974 16.496 91.5334 16.36 91.9334 16.36C92.3334 16.36 92.6694 16.496 92.9414 16.768ZM96.9258 13.048C96.9258 14.36 97.2458 15.424 97.8858 16.24C98.5258 17.056 99.3338 17.464 100.31 17.464C101.302 17.464 102.142 17.096 102.83 16.36C103.534 15.624 103.886 14.448 103.886 12.832C103.886 11.296 103.526 10.168 102.806 9.448C102.086 8.728 101.294 8.368 100.43 8.368C99.4218 8.368 98.5818 8.776 97.9098 9.592C97.2538 10.392 96.9258 11.544 96.9258 13.048ZM105.782 19H103.886V17.2C103.022 18.528 101.774 19.192 100.142 19.192C98.5258 19.192 97.2538 18.592 96.3258 17.392C95.4138 16.192 94.9578 14.736 94.9578 13.024C94.9578 11.12 95.4458 9.584 96.4218 8.416C97.3978 7.232 98.6538 6.64 100.19 6.64C101.774 6.64 103.006 7.32 103.886 8.68V2.032H105.782V19ZM111.287 19H109.391V6.832H111.287V19ZM111.215 2.128C111.455 2.368 111.575 2.664 111.575 3.016C111.575 3.368 111.455 3.664 111.215 3.904C110.975 4.128 110.679 4.24 110.327 4.24C109.975 4.24 109.679 4.128 109.439 3.904C109.215 3.664 109.103 3.368 109.103 3.016C109.103 2.664 109.215 2.368 109.439 2.128C109.679 1.888 109.975 1.768 110.327 1.768C110.679 1.768 110.975 1.888 111.215 2.128ZM116.769 19H114.873L114.897 6.832H116.769V8.968C117.409 7.464 118.513 6.712 120.081 6.712C120.369 6.712 120.593 6.728 120.753 6.76V8.632C120.417 8.52 120.073 8.464 119.721 8.464C118.873 8.464 118.169 8.856 117.609 9.64C117.049 10.424 116.769 11.328 116.769 12.352V19ZM131.605 18.376C130.661 18.872 129.509 19.12 128.149 19.12C126.309 19.12 124.821 18.56 123.685 17.44C122.565 16.304 122.005 14.808 122.005 12.952C122.005 11.016 122.509 9.488 123.517 8.368C124.525 7.248 125.821 6.688 127.405 6.688C128.925 6.688 130.133 7.176 131.029 8.152C131.925 9.128 132.373 10.512 132.373 12.304C132.373 12.816 132.333 13.288 132.253 13.72H123.949C124.093 14.92 124.549 15.84 125.317 16.48C126.085 17.12 127.093 17.44 128.341 17.44C129.701 17.44 130.789 17.16 131.605 16.6V18.376ZM127.405 8.344C126.493 8.344 125.717 8.672 125.077 9.328C124.437 9.984 124.061 10.92 123.949 12.136H130.477V11.656C130.477 10.648 130.205 9.848 129.661 9.256C129.117 8.648 128.365 8.344 127.405 8.344ZM143.64 18.568C142.872 19.032 141.928 19.264 140.808 19.264C138.888 19.264 137.36 18.656 136.224 17.44C135.104 16.208 134.544 14.712 134.544 12.952C134.544 11.224 135.104 9.736 136.224 8.488C137.36 7.24 138.904 6.616 140.856 6.616C141.896 6.616 142.824 6.84 143.64 7.288V9.088C142.904 8.592 142.04 8.344 141.048 8.344C139.672 8.344 138.568 8.792 137.736 9.688C136.92 10.568 136.512 11.664 136.512 12.976C136.528 14.288 136.928 15.384 137.712 16.264C138.496 17.128 139.608 17.56 141.048 17.56C141.976 17.56 142.84 17.296 143.64 16.768V18.568ZM152.657 18.688C152.129 18.976 151.537 19.12 150.881 19.12C148.481 19.12 147.281 17.896 147.281 15.448V8.368H145.337V6.832H147.281V3.808H149.177V6.832H152.537V8.368H149.177V15.496C149.177 16.792 149.785 17.44 151.001 17.44C151.625 17.44 152.177 17.256 152.657 16.888V18.688ZM166.124 12.952C166.124 14.76 165.612 16.256 164.588 17.44C163.564 18.624 162.156 19.216 160.364 19.216C158.62 19.216 157.236 18.632 156.212 17.464C155.204 16.28 154.7 14.792 154.7 13C154.7 11.192 155.22 9.688 156.26 8.488C157.316 7.272 158.684 6.664 160.364 6.664C162.204 6.664 163.62 7.256 164.612 8.44C165.62 9.624 166.124 11.128 166.124 12.952ZM156.668 12.976C156.668 14.24 157.004 15.32 157.676 16.216C158.348 17.096 159.244 17.536 160.364 17.536C161.58 17.536 162.516 17.104 163.172 16.24C163.828 15.36 164.156 14.272 164.156 12.976C164.156 11.632 163.844 10.528 163.22 9.664C162.596 8.784 161.644 8.344 160.364 8.344C159.212 8.344 158.308 8.792 157.652 9.688C156.996 10.584 156.668 11.68 156.668 12.976ZM170.769 19H168.873L168.897 6.832H170.769V8.968C171.409 7.464 172.513 6.712 174.081 6.712C174.369 6.712 174.593 6.728 174.753 6.76V8.632C174.417 8.52 174.073 8.464 173.721 8.464C172.873 8.464 172.169 8.856 171.609 9.64C171.049 10.424 170.769 11.328 170.769 12.352V19ZM182.005 18.688C181.381 20.336 180.637 21.496 179.773 22.168C178.925 22.84 177.949 23.176 176.845 23.176C176.429 23.176 176.093 23.136 175.837 23.056V21.352C176.077 21.416 176.349 21.448 176.653 21.448C178.269 21.448 179.413 20.528 180.085 18.688L175.165 6.832H177.301L178.885 10.84L181.021 16.36C181.149 15.944 181.789 14.104 182.941 10.84L184.357 6.832H186.397L182.005 18.688Z" fill="white"/>
</svg>
